<svg width="234" height="36" viewBox="0 0 234 36" fill="none" xmlns="http://www.w3.org/2000/svg">
<g clip-path="url(#clip0_502_145)">
<path d="M21.3929 6.02305C21.3929 6.02305 20.86 6.04993 20.2046 6.2407C19.1413 6.54926 18.2813 7.32386 17.8565 8.33147L17.7471 8.5901C17.605 9.00876 18.0155 9.40694 18.4377 9.25458C20.1629 8.63363 23.6862 7.89232 26.966 10.4504C27.31 10.718 27.8247 10.5644 27.9615 10.1547C28.0827 9.78976 28.1152 9.29427 27.8585 8.67716C27.3074 7.34946 25.0153 6 22.0679 6C21.8464 6 21.6209 6.00768 21.3929 6.02305ZM11.8456 12.691C12.8281 17.3565 19.7042 20.3716 25.7607 23.3074C29.5056 25.1216 29.2775 27.352 28.5583 28.7898C28.3055 29.2929 28.8762 29.8102 29.37 29.5298C29.9056 29.2264 30.4555 28.8115 30.8777 28.2546C32.0647 26.6862 32.8009 21.6584 22.4458 17.0748C14.8283 13.7012 15.5736 10.7142 16.388 9.45944C16.4818 9.31732 16.4961 9.1368 16.4258 8.98188C16.3567 8.82696 16.2108 8.71685 16.0414 8.68996C16.0414 8.68996 15.7873 8.65667 15.4016 8.65667C14.0504 8.65667 11.0808 9.05869 11.8456 12.691ZM29.6463 10.453C28.9844 13.0315 26.5803 14.929 25.315 15.7727C24.9788 15.9968 25.0179 16.4935 25.3815 16.6702C26.7848 17.3475 27.5015 17.7393 27.8494 17.9429C28.0357 18.0543 28.2729 18.0402 28.4462 17.9096C30.3734 16.4615 32.5312 14.0801 32.4739 12.1878C32.4335 10.8832 31.2842 10.2648 30.4972 9.99461C30.4281 9.97029 30.3564 9.95748 30.2835 9.95748C29.9903 9.95748 29.7232 10.1547 29.6463 10.453ZM19.1687 10.5708C17.751 11.2493 18.6383 12.3863 19.0514 12.8139C19.8319 13.6205 20.8873 14.253 21.6626 14.6537C22.3376 15.0045 23.1546 14.9661 23.7931 14.5513C24.5749 14.0417 25.3893 13.3529 25.9509 12.8497C26.3379 12.5028 26.2806 11.8921 25.8401 11.6142C24.0094 10.453 22.52 10.0842 21.3525 10.0842C20.4261 10.0842 19.7016 10.316 19.1687 10.5708ZM10.3354 16.4782C9.70738 17.9723 9.38293 21.2205 14.8739 25.58C17.2219 27.4442 20.2476 28.8346 23.5559 29.8678C25.3658 30.4337 27.2135 29.1124 27.2135 27.2457C27.2135 26.338 26.6598 25.5185 25.8089 25.1665C16.5665 21.3306 12.7552 17.7867 11.456 16.3015C11.331 16.1568 11.1472 16.0736 10.9531 16.0749C10.699 16.0749 10.4462 16.2157 10.3354 16.4782ZM32.5442 16.587C31.8836 17.3987 30.9689 18.149 30.2874 18.656C30.0724 18.816 29.9408 19.0619 29.9304 19.3269C29.9199 19.5919 30.0307 19.8467 30.2327 20.0221C31.3441 20.9964 31.9852 21.9055 32.354 22.6327C32.5924 23.1039 33.2974 23.0488 33.4394 22.5405C34.1417 20.026 34.0675 18.1336 33.842 16.9071C33.773 16.5332 33.4459 16.3169 33.1136 16.3169C32.9052 16.3169 32.6954 16.4014 32.5442 16.587Z" fill="url(#paint0_linear_502_145)"/>
<path d="M64.6816 6.67383L56.209 30H52.7461L62.502 4.40625H64.7344L64.6816 6.67383ZM71.7832 30L63.293 6.67383L63.2402 4.40625H65.4727L75.2637 30H71.7832ZM71.3438 20.5254V23.3027H56.9648V20.5254H71.3438ZM92.5781 27.3281V30H78.7441V27.3281H92.5781ZM92.0684 13.2832L79.4824 30H77.4961V27.6094L89.9941 10.9805H92.0684V13.2832ZM90.627 10.9805V13.6699H77.6367V10.9805H90.627ZM107.484 26.748V16.957C107.484 16.207 107.332 15.5566 107.027 15.0059C106.734 14.4434 106.289 14.0098 105.691 13.7051C105.094 13.4004 104.355 13.248 103.477 13.248C102.656 13.248 101.936 13.3887 101.314 13.6699C100.705 13.9512 100.225 14.3203 99.873 14.7773C99.5332 15.2344 99.3633 15.7266 99.3633 16.2539H96.1113C96.1113 15.5742 96.2871 14.9004 96.6387 14.2324C96.9902 13.5645 97.4941 12.9609 98.1504 12.4219C98.8184 11.8711 99.6152 11.4375 100.541 11.1211C101.479 10.793 102.521 10.6289 103.67 10.6289C105.053 10.6289 106.271 10.8633 107.326 11.332C108.393 11.8008 109.225 12.5098 109.822 13.459C110.432 14.3965 110.736 15.5742 110.736 16.9922V25.8516C110.736 26.4844 110.789 27.1582 110.895 27.873C111.012 28.5879 111.182 29.2031 111.404 29.7188V30H108.012C107.848 29.625 107.719 29.127 107.625 28.5059C107.531 27.873 107.484 27.2871 107.484 26.748ZM108.047 18.4688L108.082 20.7539H104.795C103.869 20.7539 103.043 20.8301 102.316 20.9824C101.59 21.123 100.98 21.3398 100.488 21.6328C99.9961 21.9258 99.6211 22.2949 99.3633 22.7402C99.1055 23.1738 98.9766 23.6836 98.9766 24.2695C98.9766 24.8672 99.1113 25.4121 99.3809 25.9043C99.6504 26.3965 100.055 26.7891 100.594 27.082C101.145 27.3633 101.818 27.5039 102.615 27.5039C103.611 27.5039 104.49 27.293 105.252 26.8711C106.014 26.4492 106.617 25.9336 107.062 25.3242C107.52 24.7148 107.766 24.123 107.801 23.5488L109.189 25.1133C109.107 25.6055 108.885 26.1504 108.521 26.748C108.158 27.3457 107.672 27.9199 107.062 28.4707C106.465 29.0098 105.75 29.4609 104.918 29.8242C104.098 30.1758 103.172 30.3516 102.141 30.3516C100.852 30.3516 99.7207 30.0996 98.748 29.5957C97.7871 29.0918 97.0371 28.418 96.498 27.5742C95.9707 26.7188 95.707 25.7637 95.707 24.709C95.707 23.6895 95.9062 22.793 96.3047 22.0195C96.7031 21.2344 97.2773 20.584 98.0273 20.0684C98.7773 19.541 99.6797 19.1426 100.734 18.873C101.789 18.6035 102.967 18.4688 104.268 18.4688H108.047ZM119.385 3V30H116.115V3H119.385ZM128.139 10.9805V30H124.869V10.9805H128.139ZM124.623 5.93555C124.623 5.4082 124.781 4.96289 125.098 4.59961C125.426 4.23633 125.906 4.05469 126.539 4.05469C127.16 4.05469 127.635 4.23633 127.963 4.59961C128.303 4.96289 128.473 5.4082 128.473 5.93555C128.473 6.43945 128.303 6.87305 127.963 7.23633C127.635 7.58789 127.16 7.76367 126.539 7.76367C125.906 7.76367 125.426 7.58789 125.098 7.23633C124.781 6.87305 124.623 6.43945 124.623 5.93555ZM144.574 26.748V16.957C144.574 16.207 144.422 15.5566 144.117 15.0059C143.824 14.4434 143.379 14.0098 142.781 13.7051C142.184 13.4004 141.445 13.248 140.566 13.248C139.746 13.248 139.025 13.3887 138.404 13.6699C137.795 13.9512 137.314 14.3203 136.963 14.7773C136.623 15.2344 136.453 15.7266 136.453 16.2539H133.201C133.201 15.5742 133.377 14.9004 133.729 14.2324C134.08 13.5645 134.584 12.9609 135.24 12.4219C135.908 11.8711 136.705 11.4375 137.631 11.1211C138.568 10.793 139.611 10.6289 140.76 10.6289C142.143 10.6289 143.361 10.8633 144.416 11.332C145.482 11.8008 146.314 12.5098 146.912 13.459C147.521 14.3965 147.826 15.5742 147.826 16.9922V25.8516C147.826 26.4844 147.879 27.1582 147.984 27.873C148.102 28.5879 148.271 29.2031 148.494 29.7188V30H145.102C144.938 29.625 144.809 29.127 144.715 28.5059C144.621 27.873 144.574 27.2871 144.574 26.748ZM145.137 18.4688L145.172 20.7539H141.885C140.959 20.7539 140.133 20.8301 139.406 20.9824C138.68 21.123 138.07 21.3398 137.578 21.6328C137.086 21.9258 136.711 22.2949 136.453 22.7402C136.195 23.1738 136.066 23.6836 136.066 24.2695C136.066 24.8672 136.201 25.4121 136.471 25.9043C136.74 26.3965 137.145 26.7891 137.684 27.082C138.234 27.3633 138.908 27.5039 139.705 27.5039C140.701 27.5039 141.58 27.293 142.342 26.8711C143.104 26.4492 143.707 25.9336 144.152 25.3242C144.609 24.7148 144.855 24.123 144.891 23.5488L146.279 25.1133C146.197 25.6055 145.975 26.1504 145.611 26.748C145.248 27.3457 144.762 27.9199 144.152 28.4707C143.555 29.0098 142.84 29.4609 142.008 29.8242C141.188 30.1758 140.262 30.3516 139.23 30.3516C137.941 30.3516 136.811 30.0996 135.838 29.5957C134.877 29.0918 134.127 28.418 133.588 27.5742C133.061 26.7188 132.797 25.7637 132.797 24.709C132.797 23.6895 132.996 22.793 133.395 22.0195C133.793 21.2344 134.367 20.584 135.117 20.0684C135.867 19.541 136.77 19.1426 137.824 18.873C138.879 18.6035 140.057 18.4688 141.357 18.4688H145.137ZM173.121 4.40625V30H169.711L156.826 10.2598V30H153.434V4.40625H156.826L169.764 24.1992V4.40625H173.121ZM177.779 20.7012V20.2969C177.779 18.9258 177.979 17.6543 178.377 16.4824C178.775 15.2988 179.35 14.2734 180.1 13.4062C180.85 12.5273 181.758 11.8477 182.824 11.3672C183.891 10.875 185.086 10.6289 186.41 10.6289C187.746 10.6289 188.947 10.875 190.014 11.3672C191.092 11.8477 192.006 12.5273 192.756 13.4062C193.518 14.2734 194.098 15.2988 194.496 16.4824C194.895 17.6543 195.094 18.9258 195.094 20.2969V20.7012C195.094 22.0723 194.895 23.3438 194.496 24.5156C194.098 25.6875 193.518 26.7129 192.756 27.5918C192.006 28.459 191.098 29.1387 190.031 29.6309C188.977 30.1113 187.781 30.3516 186.445 30.3516C185.109 30.3516 183.908 30.1113 182.842 29.6309C181.775 29.1387 180.861 28.459 180.1 27.5918C179.35 26.7129 178.775 25.6875 178.377 24.5156C177.979 23.3438 177.779 22.0723 177.779 20.7012ZM181.031 20.2969V20.7012C181.031 21.6504 181.143 22.5469 181.365 23.3906C181.588 24.2227 181.922 24.9609 182.367 25.6055C182.824 26.25 183.393 26.7598 184.072 27.1348C184.752 27.498 185.543 27.6797 186.445 27.6797C187.336 27.6797 188.115 27.498 188.783 27.1348C189.463 26.7598 190.025 26.25 190.471 25.6055C190.916 24.9609 191.25 24.2227 191.473 23.3906C191.707 22.5469 191.824 21.6504 191.824 20.7012V20.2969C191.824 19.3594 191.707 18.4746 191.473 17.6426C191.25 16.7988 190.91 16.0547 190.453 15.4102C190.008 14.7539 189.445 14.2383 188.766 13.8633C188.098 13.4883 187.312 13.3008 186.41 13.3008C185.52 13.3008 184.734 13.4883 184.055 13.8633C183.387 14.2383 182.824 14.7539 182.367 15.4102C181.922 16.0547 181.588 16.7988 181.365 17.6426C181.143 18.4746 181.031 19.3594 181.031 20.2969ZM203.988 26.625L208.875 10.9805H211.02L210.598 14.0918L205.623 30H203.531L203.988 26.625ZM200.701 10.9805L204.867 26.8008L205.166 30H202.969L197.449 10.9805H200.701ZM215.695 26.6777L219.668 10.9805H222.902L217.383 30H215.203L215.695 26.6777ZM211.494 10.9805L216.275 26.3613L216.82 30H214.746L209.631 14.0566L209.209 10.9805H211.494Z" fill="#FF003C"/>
</g>
<defs>
<linearGradient id="paint0_linear_502_145" x1="10" y1="6" x2="34" y2="6" gradientUnits="userSpaceOnUse">
<stop stop-color="#FF2922"/>
<stop offset="1" stop-color="#FE255B"/>
</linearGradient>
<clipPath id="clip0_502_145">
<rect width="234" height="36" fill="white"/>
</clipPath>
</defs>
</svg>
